<svg width="20" height="15" viewBox="0 0 20 15" fill="none" xmlns="http://www.w3.org/2000/svg">
<path d="M19.9162 0.875L10.8202 9.93349C10.5861 10.1662 10.2694 10.2968 9.93935 10.2968C9.60926 10.2968 9.29258 10.1662 9.05849 9.93349L0.0437307 0.94372C0.0160175 1.04557 0.00132359 1.15053 0 1.25608V13.7505C0 14.0819 0.131638 14.3997 0.365954 14.634C0.600271 14.8684 0.918073 15 1.24945 15H18.7417C19.0731 15 19.3909 14.8684 19.6252 14.634C19.8595 14.3997 19.9911 14.0819 19.9911 13.7505V1.25608C19.9862 1.12592 19.9609 0.997343 19.9162 0.875ZM2.10532 13.7505H1.23695V12.8572L5.77869 8.35294L6.65955 9.2338L2.10532 13.7505ZM18.7292 13.7505H17.8546L13.3004 9.2338L14.1812 8.35294L18.723 12.8572L18.7292 13.7505Z" fill="white"/>
</svg>
