<svg width="134" height="133" viewBox="0 0 134 133" fill="none" xmlns="http://www.w3.org/2000/svg">
<path d="M31.1898 104H32.4498V95.234H34.7358V94.172H32.4498V93.488C32.4498 92.066 32.9898 91.454 34.6638 91.454V90.374C32.1798 90.374 31.1898 91.382 31.1898 93.488V94.172H29.8218V95.234H31.1898V104ZM37.9793 98.51C37.9793 96.044 39.3653 95.306 41.0033 95.306H41.3453V93.992C39.6533 93.992 38.5193 94.712 37.9793 95.918V94.172H36.7193V104H37.9793V98.51ZM52.4928 99.086C52.4928 95.954 50.3508 94.028 47.5788 94.028C44.8248 94.028 42.6648 95.954 42.6648 99.086C42.6648 102.2 44.7708 104.144 47.5428 104.144C50.3148 104.144 52.4928 102.2 52.4928 99.086ZM43.9428 99.086C43.9428 96.386 45.6888 95.126 47.5608 95.126C49.4328 95.126 51.1968 96.386 51.1968 99.086C51.1968 101.786 49.3968 103.046 47.5428 103.046C45.6708 103.046 43.9428 101.786 43.9428 99.086ZM69.1536 104H70.3956V98.24C70.3956 95.36 68.6676 93.992 66.4896 93.992C64.9236 93.992 63.4836 94.802 62.9436 96.404C62.3496 94.766 60.9456 93.992 59.3076 93.992C57.9216 93.992 56.6796 94.622 56.0496 95.864V94.172H54.7896V104H56.0496V98.672C56.0496 96.278 57.2916 95.09 59.0916 95.09C60.8376 95.09 61.9896 96.206 61.9896 98.384V104H63.2316V98.672C63.2316 96.278 64.4916 95.09 66.2736 95.09C68.0196 95.09 69.1536 96.206 69.1536 98.384V104ZM78.2414 91.076V98.222H79.4294C79.9334 97.142 81.0134 96.422 82.4354 96.422C84.4874 96.422 85.5674 97.628 85.5674 99.59C85.5674 101.534 84.5774 102.974 82.3994 102.974C80.7614 102.974 79.5554 102.092 79.2314 100.49H77.9894C78.3134 102.632 79.8974 104.054 82.3994 104.054C85.4414 104.054 86.7734 102.002 86.7734 99.572C86.7734 97.538 85.7114 95.342 82.5974 95.342C81.2294 95.342 79.9874 95.972 79.4114 96.782V92.174H85.9994V91.076H78.2414ZM93.0122 94.172L96.9542 104H98.3762L102.318 94.172H100.986L97.6742 102.776L94.3622 94.172H93.0122ZM104.026 104H105.286V94.172H104.026V104ZM104.656 92.318C105.16 92.318 105.574 91.922 105.574 91.382C105.574 90.842 105.16 90.464 104.656 90.464C104.152 90.464 103.738 90.842 103.738 91.382C103.738 91.922 104.152 92.318 104.656 92.318ZM112.333 95.108C114.151 95.108 115.807 96.26 115.753 98.546H108.841C108.985 96.26 110.551 95.108 112.333 95.108ZM116.887 100.886H115.555C115.195 102.2 114.061 103.082 112.387 103.082C110.551 103.082 108.949 101.876 108.841 99.572H116.995C117.031 99.23 117.031 98.978 117.031 98.582C117.031 96.08 115.267 94.028 112.387 94.028C109.561 94.028 107.563 95.954 107.563 99.086C107.563 102.2 109.597 104.144 112.387 104.144C114.853 104.144 116.437 102.74 116.887 100.886ZM121.244 104H122.522L125.24 95.756L127.958 104H129.218L132.296 94.172H131.054L128.624 102.74L125.906 94.172H124.646L121.892 102.722L119.444 94.172H118.166L121.244 104Z" fill="#515151"/>
<path d="M53.8368 34V28.552H56.8608C58.9968 28.552 59.9568 29.56 59.9568 31.288C59.9568 32.968 58.9968 34 56.8608 34H53.8368ZM62.7648 31.288C62.7648 28.576 60.8208 26.32 56.8608 26.32H51.1008V43H53.8368V36.232H56.8608C61.2048 36.232 62.7648 33.664 62.7648 31.288ZM70.9422 31.864C72.9822 31.864 74.5902 33.16 74.6382 35.2H67.3182C67.6062 33.112 69.0942 31.864 70.9422 31.864ZM77.1342 39.064H74.1822C73.6782 40.096 72.7422 40.912 71.0622 40.912C69.0462 40.912 67.4862 39.592 67.2942 37.408H77.3982C77.4702 36.952 77.4942 36.52 77.4942 36.064C77.4942 32.176 74.8302 29.56 71.0622 29.56C67.1502 29.56 64.4622 32.224 64.4622 36.376C64.4622 40.528 67.2702 43.216 71.0622 43.216C74.3022 43.216 76.3902 41.368 77.1342 39.064ZM82.9227 36.04C82.9227 33.232 84.1707 32.392 86.1867 32.392H86.8827V29.56C85.0107 29.56 83.6907 30.376 82.9227 31.696V29.776H80.1867V43H82.9227V36.04ZM89.7337 43H92.4937V32.008H94.9417V29.776H92.4937V28.84C92.4937 27.328 93.0697 26.752 94.7497 26.752V24.472C91.2937 24.472 89.7337 25.792 89.7337 28.84V29.776H88.1737V32.008H89.7337V43ZM102.934 31.864C104.974 31.864 106.582 33.16 106.63 35.2H99.3104C99.5984 33.112 101.086 31.864 102.934 31.864ZM109.126 39.064H106.174C105.67 40.096 104.734 40.912 103.054 40.912C101.038 40.912 99.4784 39.592 99.2864 37.408H109.39C109.462 36.952 109.486 36.52 109.486 36.064C109.486 32.176 106.822 29.56 103.054 29.56C99.1424 29.56 96.4544 32.224 96.4544 36.376C96.4544 40.528 99.2624 43.216 103.054 43.216C106.294 43.216 108.382 41.368 109.126 39.064ZM111.267 36.376C111.267 40.528 113.955 43.216 117.747 43.216C120.987 43.216 123.099 41.416 123.843 38.824H120.891C120.387 40.192 119.379 40.912 117.747 40.912C115.539 40.912 114.075 39.28 114.075 36.376C114.075 33.496 115.539 31.864 117.747 31.864C119.379 31.864 120.435 32.68 120.891 33.952H123.843C123.099 31.168 120.987 29.56 117.747 29.56C113.955 29.56 111.267 32.248 111.267 36.376ZM127.002 39.328C127.002 42.016 128.466 43 130.818 43H132.978V40.72H131.298C130.146 40.72 129.762 40.312 129.762 39.328V32.008H132.978V29.776H129.762V26.488H127.002V29.776H125.442V32.008H127.002V39.328Z" fill="black"/>
<path d="M10.5 56L12.8574 63.2553H20.4861L14.3143 67.7394L16.6717 74.9947L10.5 70.5106L4.32825 74.9947L6.68565 67.7394L0.513906 63.2553H8.1426L10.5 56Z" fill="#F4BC61"/>
<path d="M38.5 56L40.8574 63.2553H48.4861L42.3143 67.7394L44.6717 74.9947L38.5 70.5106L32.3283 74.9947L34.6857 67.7394L28.5139 63.2553H36.1426L38.5 56Z" fill="#F4BC61"/>
<path d="M66.5 56L68.8574 63.2553H76.4861L70.3143 67.7394L72.6717 74.9947L66.5 70.5106L60.3283 74.9947L62.6857 67.7394L56.5139 63.2553H64.1426L66.5 56Z" fill="#F4BC61"/>
<path d="M94.5 56L96.8574 63.2553H104.486L98.3143 67.7394L100.672 74.9947L94.5 70.5106L88.3283 74.9947L90.6857 67.7394L84.5139 63.2553H92.1426L94.5 56Z" fill="#F4BC61"/>
<path d="M122.5 56L124.857 63.2553H132.486L126.314 67.7394L128.672 74.9947L122.5 70.5106L116.328 74.9947L118.686 67.7394L112.514 63.2553H120.143L122.5 56Z" fill="#F4BC61"/>
</svg>
